<?xml version="1.0" encoding="UTF-8"?>
<svg version="1.1" viewBox="0 0 1256.5 1453.8" xmlns="http://www.w3.org/2000/svg">
 <defs>
  <radialGradient id="f" cx="451.87" cy="919.37" r="434.37" gradientTransform="matrix(1.1395 .009302 -.0012529 .15348 -63.24 884.83)" gradientUnits="userSpaceOnUse">
   <stop offset="0"/>
   <stop stop-opacity="0" offset="1"/>
  </radialGradient>
  <linearGradient id="d" x1="-685.29" x2="-564.36" y1="447.36" y2="462.36" gradientTransform="matrix(.82215 0 0 .79112 693.87 271.68)" gradientUnits="userSpaceOnUse">
   <stop stop-color="#fff" offset="0"/>
   <stop stop-color="#fff" stop-opacity="0" offset="1"/>
  </linearGradient>
  <linearGradient id="e" x1="-721.11" x2="-913.41" y1="932.36" y2="959.03" gradientTransform="matrix(.80607 0 0 .79112 811.31 -252.81)" gradientUnits="userSpaceOnUse">
   <stop stop-color="#fff" offset="0"/>
   <stop stop-color="#fff" stop-opacity="0" offset="1"/>
  </linearGradient>
 </defs>
 <g transform="translate(432.49 653.71)">
  <g transform="matrix(1.9558 0 0 1.7615 -558.93 -911.22)">
   <path transform="matrix(.73953 0 0 1.1424 43.733 -373.8)" d="m897.02 1050.3c0 70.294-194.47 127.28-434.37 127.28-239.89 0-434.37-56.985-434.37-127.28 0-70.294 194.47-127.28 434.37-127.28 239.89 0 434.37 56.985 434.37 127.28z" fill="url(#f)"/>
   <g transform="matrix(.71622 0 0 .79091 96.483 72.112)">
    <rect transform="matrix(.99067 -.13626 .0011741 1 0 0)" x="64.173" y="174.66" width="530.27" height="759.47" ry="0" fill="#08a"/>
    <rect transform="matrix(.99067 -.13626 .0011741 1 0 0)" x="163.6" y="249.82" width="530.27" height="759.47" ry="0" fill="#5df"/>
    <rect transform="matrix(.84803 .52995 .0011741 1 0 0)" x="75.035" y="126.15" width="116.25" height="759.47" fill="#00aad4"/>
    <rect transform="matrix(.99067 -.13626 .0011741 1 0 0)" x="163.6" y="249.82" width="530.27" height="759.47" ry="0" fill="url(#d)"/>
    <rect transform="matrix(.84803 .52995 .0011741 1 0 0)" x="75.035" y="126.16" width="116.25" height="759.47" fill="url(#e)"/>
    <path d="m77.208 168.57 507.39-69.61 103.09 56.32-523.25 71.78z" fill="#ececec"/>
    <path d="m584.6 98.96-507.39 69.61 87.23 58.49 523.25-71.78" fill="none" stroke="#5fbcd3" stroke-width="8.3561"/>
   </g>
  </g>
 </g>
</svg>
